<?xml version="1.0" standalone="no"?>
<!DOCTYPE svg PUBLIC "-//W3C//DTD SVG 20010904//EN"
 "http://www.w3.org/TR/2001/REC-SVG-20010904/DTD/svg10.dtd">
<svg version="1.0" xmlns="http://www.w3.org/2000/svg"
 width="1136.000000pt" height="1280.000000pt" viewBox="0 0 1136.000000 1280.000000"
 preserveAspectRatio="xMidYMid meet">
<metadata>
Created by potrace 1.15, written by Peter Selinger 2001-2017
</metadata>
<g transform="translate(0.000000,1280.000000) scale(0.100000,-0.100000)"
fill="#000000" stroke="none">
<path d="M9575 12794 c-232 -33 -382 -73 -544 -143 -250 -108 -487 -283 -653
-481 -150 -179 -208 -280 -336 -590 -92 -222 -100 -242 -278 -700 -271 -697
-468 -1076 -774 -1485 -179 -239 -443 -519 -670 -711 -130 -110 -744 -584
-752 -582 -14 5 -391 301 -513 403 -382 318 -723 725 -983 1175 -176 304 -304
589 -536 1193 -241 626 -331 832 -429 977 -258 385 -659 655 -1127 756 -144
32 -407 43 -556 24 -245 -31 -514 -128 -706 -256 -301 -200 -534 -531 -641
-909 -109 -388 -101 -731 29 -1163 110 -367 388 -735 724 -959 300 -201 652
-297 962 -265 268 28 621 145 798 265 25 17 101 85 170 153 165 161 217 183
298 124 92 -66 203 -244 487 -775 409 -765 678 -1216 987 -1657 56 -81 86
-133 82 -140 -5 -7 -701 -992 -1549 -2188 -847 -1196 -1559 -2206 -1581 -2245
-67 -112 -160 -303 -214 -438 -240 -603 -237 -1207 11 -1726 52 -111 197 -361
208 -361 3 0 13 11 21 24 8 13 935 1275 2059 2804 l2045 2782 45 -63 c25 -34
964 -1317 2085 -2850 l2039 -2787 61 0 61 0 67 118 c136 237 221 481 259 742
19 129 16 433 -5 565 -57 355 -183 703 -369 1017 -32 55 -3089 4402 -3223
4583 l-22 30 99 140 c395 556 659 989 1059 1735 275 513 362 661 458 779 46
56 108 101 142 101 53 0 126 -48 209 -140 170 -186 349 -284 681 -376 170 -47
283 -64 425 -64 579 0 1154 377 1454 951 162 311 248 754 211 1090 -58 533
-295 965 -682 1242 -153 109 -403 211 -634 258 -96 19 -385 34 -459 23z m365
-765 c82 -20 220 -85 315 -147 168 -109 295 -299 351 -524 22 -91 29 -299 14
-410 -50 -373 -251 -662 -570 -823 -234 -118 -551 -138 -805 -52 -270 92 -481
286 -570 520 -60 161 -72 410 -26 584 105 403 449 746 854 849 140 36 298 37
437 3z m-8085 -157 c418 -109 761 -456 862 -874 14 -56 18 -112 17 -238 -1
-148 -4 -174 -28 -253 -46 -153 -114 -265 -227 -373 -301 -286 -781 -354
-1164 -165 -265 131 -439 334 -529 616 -138 433 -17 903 288 1119 133 94 272
158 400 182 99 19 279 12 381 -14z"/>
</g>
</svg>
